<svg class="svg-icon" style="width: 1em; height: 1em;vertical-align: middle;fill: currentColor;overflow: hidden;" viewBox="0 0 1024 1024" version="1.1" xmlns="http://www.w3.org/2000/svg"><path d="M968.661104 1024c-14.161105 0-28.325752-5.402717-39.131186-16.208152L16.206824 94.468754c-21.609099-21.61087-21.609099-56.649732 0-78.260602 21.61087-21.61087 56.651503-21.61087 78.262373 0L1007.79229 929.531246c21.609099 21.61087 21.609099 56.649732 0 78.260602-10.805435 10.805435-24.970081 16.208152-39.131186 16.208152z"  /><path d="M55.338011 1024c-14.161105 0-28.325752-5.402717-39.131187-16.208152-21.609099-21.61087-21.609099-56.649732 0-78.260602L929.529918 16.208152c21.61087-21.61087 56.651503-21.61087 78.262372 0 21.609099 21.61087 21.609099 56.649732 0 78.260602L94.469197 1007.791848c-10.805435 10.805435-24.970081 16.208152-39.131186 16.208152z"  /></svg>