<svg class="svg-icon" style="width: 1em;height: 1em;vertical-align: middle;fill: currentColor;overflow: hidden;" viewBox="0 0 1024 1024" version="1.1" xmlns="http://www.w3.org/2000/svg"><path d="M97.052 385.15L769.75 170.19l149.104 466.612-672.697 214.958z" fill="#4A89DC" /><path d="M781.41 147.49L74.33 373.44l160.09 500.99L941.5 648.48 781.41 147.49zM119.74 396.84l638.24-203.93 138.1 432.18-638.23 203.93-138.11-432.18z" fill="#CCD1D9" /><path d="M164.67 276.11h686.5v469.71h-686.5z" fill="#5D9CEC" /><path d="M146.59 258.03v505.86h722.65V258.03H146.59zM833.1 727.74H182.73V294.18H833.1v433.56z" fill="#E6E9ED" /><path d="M664.95 361.93c-157.26 0-133.73 230.55-133.73 230.55s22.49 26.89 134.25 26.89c111.78 0 134.42-27.1 134.42-27.1s22.32-230.34-134.94-230.34z" fill="#CCD1D9" /><path d="M805.57 641.02l-1.07-0.34c-18.26-4.92-31.65-9.66-39.71-12.76-28.55-10.98-35.99-18.92-37.88-22.65-0.07-0.13-0.13-0.29-0.19-0.42l-0.26-34.93-121.97 1.4-0.24 33.53c-0.07 0.13-0.12 0.29-0.18 0.42-1.89 3.73-9.33 11.67-37.88 22.65-8.06 3.1-21.46 7.83-39.55 12.73l-1.24 0.37c-16.46 5.51-27.54 20.93-27.54 38.35v48.4H833.1v-48.4c0-17.42-11.06-32.84-27.53-38.35z" fill="#E6E9ED" /><path d="M760.47 506.13c0 61.71-58.84 121.07-95 121.07-36.15 0-94.99-59.36-94.99-121.07 0-61.74 42.54-102.47 94.99-102.47 52.46 0 95 40.73 95 102.47z" fill="#EAC6BB" /><path d="M555.83 622.57l-1.31-0.4c-22.14-5.98-38.37-11.7-48.14-15.48-34.63-13.31-43.65-22.92-45.94-27.47-0.09-0.16-0.14-0.34-0.23-0.5l-0.32-42.34-147.88 1.69-0.29 40.65c-0.08 0.16-0.15 0.34-0.22 0.5-2.3 4.55-11.31 14.16-45.94 27.49-9.75 3.76-26.01 9.47-47.94 15.43l-1.51 0.43c-19.95 6.67-33.38 25.38-33.38 46.5v58.7H589.2v-58.7c0-21.12-13.4-39.83-33.37-46.5z" fill="#434A54" /><path d="M406.29 646.47h-40.66l-20.29 81.3h81.29z" fill="#DA4453" /><path d="M673.53 404.01c-8.94 2.78-17.61 5.61-20.81 6.35-7.34 1.69-29.2 23.71-29.2 23.71l32.82 27.52s40.26 26.44 103.21 29.03c-6.14-49.96-41.76-83.04-86.02-86.61z" fill="#F6BB42" /><path d="M406.29 646.47h-40.66l-27.1-71.98h94.86z" fill="#ED5564" /><path d="M314.1 554.27l-15.39 36.68 40.8 50.33 45.31-35.46z" fill="#656D78" /><path d="M455.53 554.27l15.39 36.68-40.79 50.33-45.31-35.46z" fill="#656D78" /><path d="M501.14 459.03c0 74.84-71.35 146.8-115.17 146.8-43.84 0-115.18-71.96-115.18-146.8s51.56-124.19 115.18-124.19c63.61-0.01 115.17 49.35 115.17 124.19z" fill="#EAC6BB" /><path d="M460.19 321.28c-19.6-17.76-85.25-39.54-150.75 0-33.16 20.01-57.31 108.4-57.31 108.4s64.7 36.65 148.91-2.96c50.39-23.71 49.26-11.3 63.66 10.29 8.53 12.81 36.44 22.02 36.44 22.02s21.72-81.01-40.95-137.75z" fill="#434A54" /><path d="M571.19 492.64c79.39-12.78 120.62-65.37 131.56-81.51-11.44-4.84-24.04-7.46-37.29-7.46-48.53-0.01-88.57 34.87-94.27 88.97z" fill="#FFCE54" /></svg>