<svg class="svg-icon" style="width: 1.0009765625em; height: 1em;vertical-align: middle;fill: currentColor;overflow: hidden;" viewBox="0 0 1025 1024" version="1.1" xmlns="http://www.w3.org/2000/svg"><path d="M610.407177 511.082288l389.700244-389.700245c25.554114-25.554114 25.554114-70.273815 0-95.827929-25.554114-31.942643-70.273815-31.942643-95.827929-6.388528L514.579248 415.254359 118.490475 19.165586C92.93636-6.388529 48.21666-6.388529 22.662546 19.165586-2.891569 44.7197-9.280097 89.4394 16.274017 114.993515L412.36279 511.082288 22.662546 900.782532c-25.554114 25.554114-25.554114 70.273815 6.388528 95.827929 25.554114 25.554114 70.273815 25.554114 95.827929 0l389.700245-383.311716 389.700244 389.700245c25.554114 31.942643 70.273815 25.554114 95.827929-6.388529 25.554114-25.554114 31.942643-63.885286 0-95.827929L610.407177 511.082288z" fill="#8492A6" /></svg>