<svg class="svg-icon" style="width: 1em; height: 1em;vertical-align: middle;fill: currentColor;overflow: hidden;" viewBox="0 0 1024 1024" version="1.1" xmlns="http://www.w3.org/2000/svg"><path d="M768 992c-6.4 0-12.8 0-19.2-6.4L512 838.4l-115.2 115.2c0 12.8-12.8 12.8-25.6 6.4s-19.2-19.2-19.2-32v-236.8c0-6.4 6.4-19.2 6.4-25.6L710.4 320c12.8-12.8 32-12.8 44.8 0 12.8 12.8 12.8 32 0 44.8L409.6 704v147.2l76.8-76.8c12.8-6.4 32-12.8 44.8-6.4l217.6 134.4L908.8 128l-768 409.6 166.4 96c6.4 6.4 12.8 25.6 6.4 38.4-6.4 12.8-25.6 19.2-44.8 12.8L57.6 563.2c-12.8-6.4-19.2-19.2-19.2-32s6.4-19.2 19.2-25.6L934.4 38.4c12.8-6.4 25.6-6.4 32 0 12.8 6.4 12.8 19.2 12.8 32L800 960c0 12.8-6.4 19.2-19.2 25.6 0 0-6.4 6.4-12.8 6.4z" fill="#14ADC4" /></svg>